<svg width="18" height="18" viewBox="0 0 18 18" fill="none" xmlns="http://www.w3.org/2000/svg">
<path d="M8.36134 1.03819C8.59371 0.597761 9.22447 0.597761 9.45685 1.03819L11.7957 5.47111C11.8853 5.64096 12.0486 5.75963 12.2379 5.79237L17.1766 6.64689C17.6672 6.73179 17.8622 7.33168 17.5151 7.68878L14.0219 11.283C13.888 11.4207 13.8256 11.6127 13.853 11.8028L14.5664 16.7638C14.6373 17.2567 14.127 17.6275 13.6801 17.4078L9.18236 15.1962C9.01003 15.1115 8.80815 15.1115 8.63582 15.1962L4.13805 17.4078C3.69118 17.6275 3.18088 17.2567 3.25176 16.7638L3.96521 11.8028C3.99254 11.6127 3.93016 11.4207 3.79632 11.283L0.303095 7.68878C-0.0439681 7.33168 0.150949 6.73179 0.641625 6.64689L5.58033 5.79237C5.76955 5.75963 5.93288 5.64096 6.0225 5.47111L8.36134 1.03819Z" fill="#F8AB18"/>
</svg>
